<svg width="31" height="30" viewBox="0 0 31 30" xmlns="http://www.w3.org/2000/svg"><title>Menu_Phone_Big_Green</title><path d="M20.522 18.458a3.07 3.07 0 0 1 2.156-.884 2.888 2.888 0 0 1 2.063.827l4.418 4.434a3.004 3.004 0 0 1-.061 4.233l-1.032 1.015-.07.061-.248.195c-.6.47-1.266.85-1.974 1.126a8.219 8.219 0 0 1-2.025.511 5.954 5.954 0 0 1-.599.024c-4.127 0-9.489-2.127-15.227-7.882C1.78 15.958-.517 11.338.096 6.241c.082-.687.249-1.36.499-2.008a7.773 7.773 0 0 1 1.073-1.91l.09-.149a.998.998 0 0 1 .144-.184L2.992.888A3.066 3.066 0 0 1 5.153 0c.77-.011 1.51.286 2.063.83l4.435 4.436a3.01 3.01 0 0 1-.066 4.23l-1.867 1.87a21.512 21.512 0 0 0 3.751 5.197 21.417 21.417 0 0 0 5.188 3.764l1.864-1.869zM2.562 2.932a6.923 6.923 0 0 0-1.39 3.437c-.565 4.707 1.587 9.036 7.519 14.985 3.143 3.152 6.272 5.23 9.29 6.428 2.064.818 3.822 1.135 5.176 1.135.165.002.33-.005.478-.018a7.116 7.116 0 0 0 1.743-.442 6.706 6.706 0 0 0 1.701-.97l.217-.167 1.043-1.026a1.92 1.92 0 0 0 .048-2.699l-4.41-4.425a1.806 1.806 0 0 0-1.293-.513 1.988 1.988 0 0 0-1.398.57l-2.437 2.444-.358-.199-.333-.184a22.48 22.48 0 0 1-5.455-3.96 22.586 22.586 0 0 1-3.952-5.476l-.368-.68.285-.286 2.156-2.16a1.925 1.925 0 0 0 .053-2.703L6.453 1.598a1.798 1.798 0 0 0-1.293-.515 1.985 1.985 0 0 0-1.402.57l-1.08 1.092-.116.187zm25.132 22.72c.197-.196.31-.461.314-.742a.911.911 0 0 0-.264-.662l-4.414-4.43a.902.902 0 0 0-.652-.262 1.071 1.071 0 0 0-.754.301l-2.381 2.388c-.306.324-.79.406-1.199.193l-.632-.352a23.28 23.28 0 0 1-5.66-4.1 23.327 23.327 0 0 1-4.105-5.688l-.356-.615a1 1 0 0 1 .166-1.197l2.416-2.411a1.01 1.01 0 0 0 .05-1.407l-4.41-4.42a.896.896 0 0 0-.653-.25 1.066 1.066 0 0 0-.752.305l-.993.992-.084.117a6.214 6.214 0 0 0-.878 1.548 6.27 6.27 0 0 0-.375 1.516c-.529 4.396 1.545 8.503 7.257 14.235 3.037 3.041 6.037 5.046 8.913 6.2 1.966.79 3.632 1.094 4.902 1.094.111 0 .207-.003.292-.008l.092-.006a6.204 6.204 0 0 0 1.517-.384 5.8 5.8 0 0 0 1.468-.835l.183-.14.668-.658.324-.322zm-6.533-6.564a2.153 2.153 0 0 1 1.516-.615 1.981 1.981 0 0 1 1.42.58l4.415 4.431c.382.384.59.906.58 1.445a2.15 2.15 0 0 1-.085.565h.394l-.942.928-1.04 1.02-.23.182a6.884 6.884 0 0 1-1.744.991 7.25 7.25 0 0 1-1.938.463 5.9 5.9 0 0 1-.357.01c-3.913 0-9.034-2.055-14.583-7.613C2.644 15.532.425 11.138 1.002 6.347c.072-.608.22-1.205.44-1.777.243-.63.576-1.222.975-1.743L2.59 2.6l1.053-1.062c.405-.4.952-.624 1.508-.622a1.976 1.976 0 0 1 1.423.56l4.43 4.442c.78.836.746 2.145-.07 2.931l-2.365 2.36.33.572a22.299 22.299 0 0 0 3.922 5.441 22.22 22.22 0 0 0 5.404 3.91l.578.322 2.36-2.365z" fill="#48A85F"/></svg>