<svg width="26" height="37" viewBox="0 0 26 37" xmlns="http://www.w3.org/2000/svg"><title>Menu_Map_Big_Green</title><g fill="#48A85F"><path d="M12.775 8.325c-2.956 0-5.346 2.59-5.346 5.735 0 3.145 2.39 5.735 5.346 5.735 2.955 0 5.345-2.59 5.345-5.735 0-3.145-2.39-5.735-5.345-5.735zm0 9.158c-1.739 0-3.173-1.527-3.173-3.423 0-1.896 1.434-3.423 3.173-3.423 1.738 0 3.172 1.527 3.172 3.423 0 1.896-1.434 3.423-3.172 3.423z"/><path d="M12.678 0C6.028 0 .465 5.689.03 12.904c-.217 3.237.74 6.521 2.652 9.25l9.127 13.875c.217.323.521.508.913.508.39 0 .695-.184.912-.508l9.084-13.875c1.912-2.775 2.869-6.059 2.695-9.25C24.89 5.689 19.328 0 12.678 0zm8.215 20.813l-8.215 12.533L4.42 20.813C2.812 18.5 1.986 15.77 2.16 13.088 2.508 7.816 6.506 2.312 12.635 2.312c6.128 0 10.17 5.458 10.474 10.777.217 2.636-.565 5.411-2.216 7.723z"/></g></svg>