<?xml version="1.0" encoding="UTF-8"?>
<svg width="72px" height="77px" viewBox="0 0 72 77" version="1.1" xmlns="http://www.w3.org/2000/svg" xmlns:xlink="http://www.w3.org/1999/xlink">
    <!-- Generator: Sketch 46 (44423) - http://www.bohemiancoding.com/sketch -->
    <title>Combined Shape</title>
    <desc>Created with Sketch.</desc>
    <defs></defs>
    <g id="Symbols" stroke="none" stroke-width="1" fill="none" fill-rule="evenodd">
        <g id="Логотип_Синий" transform="translate(-15.000000, 0.000000)" fill="#4A90E2">
            <path d="M15,18.9478996 C15,15.0805607 18.1433564,11.945463 22.0066307,11.945463 L47.4750977,11.945463 L53.9121094,30.6700724 L48.1762695,37.4391154 L41.2114258,28.9073771 L35.9775391,21.2843302 C35.9775391,21.2843302 24.7515869,21.004423 24.0118408,22.1203898 C23.1355892,23.8753005 22.8118435,40.3028882 23.0797119,51.2350138 C23.3796387,63.4754923 23.3948975,65.2750529 24.0118408,66.9508341 C24.3883057,67.8634318 32.3455811,68.7720011 33.9943848,66.9508341 C33.8778076,66.4626749 35.0379639,44.5557785 35.0379639,40.8611124 C38.5771484,40.6568888 46.6952851,54.3135706 48.5,54.664213 C53.7875977,50.2359904 57.3203125,40.3614786 60.8271484,39.9938029 C62.777832,39.6554239 61.345459,66.0697306 61.9849846,68.1596737 C63.2634277,68.8753947 70.980957,68.8858927 73.0405273,68.2115763 L73.0405273,36.3629435 L82,34.2721232 L82,69.9466134 C82,73.8119713 78.8583157,76.945463 75.0037111,76.945463 L21.9962889,76.945463 C18.1323452,76.945463 15,73.8103779 15,69.9430264 L15,18.9478996 Z M86.6126338,0.0213979967 C86.6126338,0.0213979967 86.9195186,8.01163962 86.5754024,11.7146353 C86.2312861,15.417631 79.1204463,25.4507193 75.4374629,27.1227164 C71.7544795,28.7947134 67.3911983,28.0152945 66.4518672,27.1980337 C65.5125361,26.380773 65.8863154,21.1683707 65.8863154,21.1683707 C65.8863154,21.1683707 70.7995235,13.8910269 69.696252,13.5190787 C68.5929805,13.1471304 60.6588985,22.9591421 60.0009395,22.9853873 C59.3429805,23.0116324 54.2160274,16.2003531 56.6519404,10.2110953 C59.0878535,4.22183745 64.8793203,2.3546572 68.7452022,1.05777495 C72.611084,-0.239107303 86.6126338,0.0213979967 86.6126338,0.0213979967 Z" id="Combined-Shape"></path>
        </g>
    </g>
</svg>