<svg width="30" height="30" viewBox="0 0 30 30" xmlns="http://www.w3.org/2000/svg"><title>Menu_Time_Big_Green</title><path d="M15 30C6.713 30 0 23.282 0 15S6.713 0 15 0c8.287 0 15 6.718 15 15s-6.713 15-15 15zm0-2.02c7.156 0 12.961-5.809 12.961-12.98S22.156 2.02 15 2.02C7.844 2.02 2.039 7.828 2.039 15S7.844 27.98 15 27.98zm-.607-22.588a1.02 1.02 0 0 1 1.02-1.024c.563 0 1.02.452 1.02 1.024v9.49a1.02 1.02 0 0 1-1.02 1.024c-.563 0-1.02-.452-1.02-1.024v-9.49zm-8.798 10.62a1.02 1.02 0 0 1-1.024-1.02c0-.563.452-1.02 1.024-1.02h9.49a1.02 1.02 0 0 1 1.024 1.02c0 .563-.452 1.02-1.024 1.02h-9.49z" fill="#48A85F"/></svg>